# xmcd
#
# Track frame offsets:
#	150
#	15334
#	34556
#	51733
#	69696
#	87785
#	104714
#	124056
#	143114
#	162678
#	179781
#	200394
#	221366
#
# Disc length: 3186 seconds
#
# Revision: 1
# Processed by: cddbd v1.5.1PL2 Copyright (c) Steve Scherf et al.
# Submitted via: audiograbber 1.83.01
#
DISCID=c30c700d
DTITLE=North 2 South - Cruisin
DYEAR=2003
DGENRE=Country
TTITLE0=All Messed Up
TTITLE1=I Like It Like That
TTITLE2=Whatcha Gonna Do
TTITLE3=Good Girls Love Bad Boys
TTITLE4=The Meaning Of War
TTITLE5=Restless
TTITLE6=Somethin About That Girl
TTITLE7=One More Chance
TTITLE8=Not Lookin Back
TTITLE9=Missing You Now
TTITLE10=Love, The Hard Way
TTITLE11=Daddy's Girl
TTITLE12=Cruiisin
EXTD=www.north2southonline.com
EXTT0=
EXTT1=
EXTT2=
EXTT3=
EXTT4=
EXTT5=
EXTT6=
EXTT7=
EXTT8=
EXTT9=
EXTT10=
EXTT11=
EXTT12=
PLAYORDER=
